<svg xmlns="http://www.w3.org/2000/svg" width="20" height="18" style=""><rect id="backgroundrect" width="100%" height="100%" x="0" y="0" fill="none" stroke="none"/><g class="currentLayer" style=""><title>Layer 1</title><g fill="#ffffff" fill-rule="nonzero" id="svg_1" class="selected" fill-opacity="1"><circle cx="10" cy="10" r="3.200000047683716" id="svg_2" fill="#ffffff" fill-opacity="1"/><path d="M7 0L5.17 2H2C.9 2 0 2.9 0 4v12c0 1.1.9 2 2 2h16c1.1 0 2-.9 2-2V4c0-1.1-.9-2-2-2h-3.17L13 0H7zm3 15c-2.76 0-5-2.24-5-5s2.24-5 5-5 5 2.24 5 5-2.24 5-5 5z" id="svg_3" fill="#ffffff" fill-opacity="1"/></g></g></svg>